<svg xmlns="http://www.w3.org/2000/svg" width="76" height="94.032" viewBox="0 0 76 94.032"><g transform="translate(-1385.787 -1761.048)"><text transform="translate(1423.787 1847.08)" fill="#fff" font-size="22" font-family="Avenir-Black, Avenir" font-weight="800"><tspan x="-37.07" y="0">Repeat</tspan></text><path d="M1412.8,1763.365l3.757,3.758h-2.6a16.387,16.387,0,0,0,0,32.774v-3.277a13.11,13.11,0,0,1,0-26.22h2.6l-3.757,3.758,2.317,2.317,7.713-7.713-7.713-7.714Z" fill="#fff"/><path d="M1450.006,1783.51a16.405,16.405,0,0,0-16.387-16.387v3.277a13.11,13.11,0,0,1,0,26.22h-2.6l3.758-3.758-2.318-2.317-7.713,7.713,7.713,7.714,2.318-2.317-3.758-3.758h2.6A16.405,16.405,0,0,0,1450.006,1783.51Z" fill="#fff"/><rect width="3.277" height="3.277" transform="translate(1427.064 1767.123)" fill="#fff"/><rect width="3.277" height="3.277" transform="translate(1417.232 1796.62)" fill="#fff"/></g></svg>