<svg xmlns="http://www.w3.org/2000/svg" width="58" height="98.747" viewBox="0 0 58 98.747"><g transform="translate(-778.263 -1756.333)"><text transform="translate(807.263 1847.08)" fill="#fff" font-size="22" font-family="Avenir-Black, Avenir" font-weight="800"><tspan x="-28.732" y="0">Sleep</tspan></text><path d="M807.55,1768.13l-1.286,1.389-1.493,1.656q-.777.868-1.019,1.158a1.089,1.089,0,0,0,.1,1.494,1.572,1.572,0,0,0,1.065.312h6.763a1.316,1.316,0,0,0,.9-.266.879.879,0,0,0,.3-.683.925.925,0,0,0-.3-.718,1.289,1.289,0,0,0-.892-.278h-4.863l4.574-5.107.428-.474.22-.278a1.492,1.492,0,0,0,.185-.348,1.165,1.165,0,0,0,.082-.417.869.869,0,0,0-.429-.833,2.584,2.584,0,0,0-1.216-.232h-5.685a1.25,1.25,0,0,0-.846.255.859.859,0,0,0-.3.683q0,.591.394.718a3.717,3.717,0,0,0,1.158.139H809.1q-.231.324-.6.764Z" fill="#fff"/><path d="M818.8,1774.88l-1,1.158-1.158,1.321q-.625.695-.822.949a.868.868,0,0,0,.081,1.158,1.25,1.25,0,0,0,.846.243h5.372a1.049,1.049,0,0,0,.718-.208.709.709,0,0,0,.232-.545.741.741,0,0,0-.243-.567,1.02,1.02,0,0,0-.718-.22h-3.891l3.648-4.076.347-.382.22-.266a1.245,1.245,0,0,0,.151-.278.925.925,0,0,0,.069-.336.7.7,0,0,0-.336-.672,2.06,2.06,0,0,0-.972-.185h-4.586a1.016,1.016,0,0,0-.672.208.687.687,0,0,0-.243.545c0,.308.1.5.313.579a2.986,2.986,0,0,0,.926.1h2.965a6.905,6.905,0,0,1-.487.614Z" fill="#fff"/><path d="M834.982,1773.282a.878.878,0,0,0,.3-.683.927.927,0,0,0-.3-.718,1.289,1.289,0,0,0-.892-.278h-4.9l4.574-5.106.428-.475.278-.336a1.526,1.526,0,0,0,.186-.347,1.168,1.168,0,0,0,.081-.417.869.869,0,0,0-.429-.834,2.581,2.581,0,0,0-1.216-.231h-5.743a1.252,1.252,0,0,0-.845.254.859.859,0,0,0-.3.684c0,.393.132.633.394.718a3.739,3.739,0,0,0,1.158.139h3.706c-.155.216-.355.47-.6.764l-.962,1.088-1.25,1.39-1.494,1.656q-.775.868-1.019,1.158a1.087,1.087,0,0,0,.1,1.493,1.57,1.57,0,0,0,1.066.313h6.75A1.317,1.317,0,0,0,834.982,1773.282Z" fill="#fff"/><path d="M830.987,1791.381a1.159,1.159,0,0,0-1.274-.266,24.595,24.595,0,0,1-31.693-33.129,1.158,1.158,0,0,0-1.494-1.563,26.934,26.934,0,1,0,34.669,36.244A1.16,1.16,0,0,0,830.987,1791.381Zm-24.213,14.591a24.63,24.63,0,0,1-11.985-46.145,26.565,26.565,0,0,0-1.39,8.511,26.947,26.947,0,0,0,34.322,25.915A24.722,24.722,0,0,1,806.774,1805.972Z" fill="#fff"/></g></svg>