<svg xmlns="http://www.w3.org/2000/svg" width="18.471" height="22" viewBox="0 0 18.471 22"><g transform="translate(-1510.183 -44.335)"><path d="M1515.7,55.2a6.068,6.068,0,1,1,7.442,0c.075.028.137.053.2.075a6.745,6.745,0,0,1,4.693,5.678c.225,1.481.405,2.969.606,4.454a.755.755,0,0,1-.8.928H1510.99a.735.735,0,0,1-.8-.84c.233-1.751.385-3.52.76-5.241a6.557,6.557,0,0,1,4.621-5Zm11.332,9.6c-.171-1.265-.341-2.514-.511-3.763a5.286,5.286,0,0,0-5.161-4.555q-1.941-.018-3.883,0a5.249,5.249,0,0,0-5.067,4.061c-.189.835-.26,1.7-.38,2.548-.08.567-.151,1.135-.227,1.71Zm-7.629-9.838a4.545,4.545,0,1,0-4.534-4.484A4.545,4.545,0,0,0,1519.407,54.969Z" fill="#001121"/></g></svg>