<svg xmlns="http://www.w3.org/2000/svg" width="83.697" height="94.032" viewBox="0 0 83.697 94.032"><g transform="translate(-1074.242 -1761.048)"><text transform="translate(1116.091 1847.08)" fill="#fff" font-size="22" font-family="Avenir-Black, Avenir" font-weight="800"><tspan x="-23.639" y="0">Dive</tspan></text><path d="M1156.7,1774.821h-3.768c.005-.733.005-1.424,0-2.052v-.606c0-9.852-19.665-11.115-36.8-11.115s-36.8,1.263-36.8,11.115v.606c0,.628,0,1.319.005,2.052h-3.868a1.235,1.235,0,0,0-1.234,1.234v12.487a1.235,1.235,0,0,0,1.234,1.234h5.8c2.322,7.289,7.421,13.686,18.63,13.773,6.414,0,9.076-5.926,11.216-10.682,1.552-3.456,2.9-6.444,5.016-6.444s3.462,2.986,5.016,6.444c2.14,4.759,4.8,10.682,11.216,10.682h.011c11.207-.086,16.3-6.484,18.623-13.773h5.7a1.235,1.235,0,0,0,1.235-1.234v-12.487a1.234,1.234,0,0,0-1.238-1.234Zm-79.99,12.486V1777.29h2.681a51.882,51.882,0,0,0,1.2,10.017Zm55.659,13.773c-4.814,0-6.922-4.69-8.959-9.225-1.826-4.064-3.551-7.9-7.266-7.9s-5.442,3.837-7.266,7.9c-2.047,4.536-4.156,9.225-8.966,9.225-18.136-.139-18.115-19.165-18.1-28.3v-.608c0-8.646,25.839-8.646,34.329-8.646s34.33,0,34.33,8.646v.608c.011,9.139.033,28.162-18.1,28.3Zm23.1-13.773h-3.786a51.867,51.867,0,0,0,1.2-10.017h2.582Zm0,0" fill="#fff"/><path d="M1146.638,1770.545c-1.2-.9-3.828-2.165-9.5-3.074a181.4,181.4,0,0,0-42.006,0c-5.72.916-8.335,2.2-9.523,3.107a2.78,2.78,0,0,0-1.07,2.2c-.015,12.316,1.16,25.467,15.355,25.573h.009c2.843,0,4.342-2.876,6.471-7.612,1.9-4.24,4.275-9.516,9.761-9.516s7.856,5.275,9.762,9.515c2.125,4.726,3.618,7.6,6.466,7.611,14.208-.125,15.383-13.261,15.369-25.588a2.773,2.773,0,0,0-1.1-2.213Zm-14.275,25.332c-1.1-.006-2.116-1.5-4.21-6.157-1.964-4.367-4.932-10.969-12.013-10.969s-10.052,6.6-12.015,10.971c-2.1,4.653-3.118,6.151-4.212,6.155-9.546-.075-12.921-6.121-12.9-23.1a.3.3,0,0,1,.1-.241c.635-.485,2.721-1.715,8.412-2.629a179.407,179.407,0,0,1,41.224,0c5.648.907,7.76,2.131,8.41,2.615a.31.31,0,0,1,.106.253c.018,16.977-3.363,23.022-12.9,23.1Zm0,0" fill="#fff"/></g></svg>