<svg xmlns="http://www.w3.org/2000/svg" width="52.031" height="98.646" viewBox="0 0 52.031 98.646"><g transform="translate(-474.682 -1756.434)"><text transform="translate(500.698 1847.08)" fill="#fff" font-size="22" font-family="Avenir-Black, Avenir" font-weight="800"><tspan x="-17.314" y="0">Eat</tspan></text><path d="M479.841,1758.816a1.346,1.346,0,0,0-2,.1,10.68,10.68,0,0,0-1.965,6.061c-.164,4.83,2.311,9.837,7.355,14.881l10.1,10.1a4.608,4.608,0,0,0,6.517,0,.284.284,0,0,1,.2-.084.281.281,0,0,1,.2.084l1.632,1.632c.062.062.036.223-.022.35a4.629,4.629,0,0,0,.933,5.176l9.678,9.678a5.424,5.424,0,0,0,7.671-7.671Zm38.4,46.075a2.738,2.738,0,0,1-3.866,0l-9.678-9.678a1.928,1.928,0,0,1-.389-2.155,2.968,2.968,0,0,0-.523-3.372l-1.631-1.631a2.978,2.978,0,0,0-4.211,0,1.918,1.918,0,0,1-2.711,0l-10.1-10.1c-7.812-7.813-6.956-13.506-5.945-15.984l39.051,39.05A2.738,2.738,0,0,1,518.244,1804.891Z" fill="#fff"/><path d="M510.874,1772.073a1.346,1.346,0,0,0,1.9,0l8.587-8.588a1.345,1.345,0,0,0-1.9-1.9l-8.587,8.587A1.345,1.345,0,0,0,510.874,1772.073Z" fill="#fff"/><path d="M503.332,1777.5a1.34,1.34,0,0,0,.951-.394l2.82-2.82a1.349,1.349,0,0,0,.394-.919l.073-3.042a4.406,4.406,0,0,1,1.385-2.84l8.753-8.753a1.345,1.345,0,0,0-1.9-1.9l-8.753,8.753a7.036,7.036,0,0,0-2.172,4.677l-.061,2.5-2.439,2.439a1.346,1.346,0,0,0,.952,2.3Z" fill="#fff"/><path d="M492.8,1794.008l-10.765,10.765a2.733,2.733,0,1,1-3.865-3.866l10.39-10.391a1.345,1.345,0,0,0-1.9-1.9L476.271,1799a5.425,5.425,0,0,0,7.671,7.672l10.765-10.765a1.346,1.346,0,0,0-1.9-1.9Z" fill="#fff"/><path d="M526.319,1765.44a1.347,1.347,0,0,0-1.9,0l-8.752,8.753a4.16,4.16,0,0,1-2.868,1.3l-3.163-.048a1.353,1.353,0,0,0-.971.394l-2.821,2.82a1.346,1.346,0,0,0,1.9,1.9l2.418-2.417,2.593.039a6.783,6.783,0,0,0,4.812-2.093l8.752-8.752A1.345,1.345,0,0,0,526.319,1765.44Z" fill="#fff"/></g></svg>