<svg xmlns="http://www.w3.org/2000/svg" viewBox="0 0 115 77" width="115" height="77">
	<style>
		tspan { white-space:pre }
		.shp0 { fill: #ffffff } 
		.shp1 { fill: #0073a5 } 
	</style>
	<g id="Layer">
		<g id="Layer">
		</g>
		<g id="Layer">
		</g>
		<g id="Layer">
		</g>
		<g id="Layer">
		</g>
		<g id="Layer">
		</g>
		<g id="Layer">
			<path id="Layer" class="shp0" d="M31.89 36.07L31.89 34.74L31.26 36.07L25.79 36.07L25.1 34.63L25.1 36.05L14.87 36.05L13.65 33.2L11.63 33.2L10.34 36.07L5.07 36.07L5.07 27.42L8.96 18.62L16.4 18.62L17.46 21.12L17.46 18.66L26.57 18.66L28.57 22.88L30.52 18.66L59.28 18.66C60.16 18.66 61.03 18.9 61.78 19.35L61.78 18.66L69.03 18.66L69.03 19.62C69.99 18.99 71.11 18.66 72.26 18.66L85.04 18.66L86.17 21.19L86.17 18.66L94.36 18.66L95.85 21.19L95.85 18.66L103.67 18.66L103.67 36.12L95.63 36.12L93.74 33.09L93.74 36.11L83.74 36.11L82.33 32.95L80.37 32.95L79.05 36.11L73 36.11C71.6 36.06 70.24 35.63 69.06 34.87L69.06 36.11L56.96 36.11L56.96 32.03C56.96 31.44 56.51 31.48 56.51 31.48L56.07 31.48L56.07 36.11L31.89 36.07Z" />
		</g>
		<g id="Layer">
		</g>
		<g id="Layer">
			<path id="Layer" class="shp0" d="M25.88 39.9L41.7 39.9L43.98 42.49L46.32 39.9L58.48 39.9C59.26 39.94 60.02 40.15 60.72 40.51L60.72 39.9L71.56 39.9C72.44 39.92 73.31 40.16 74.09 40.59L74.09 39.9L88.03 39.9L88.03 40.53C88.73 40.12 89.53 39.9 90.34 39.9L99.45 39.9L99.45 40.53C100.18 40.15 100.98 39.93 101.81 39.9L108.94 39.9L108.94 56.3C108.17 57.03 107.13 57.41 106.06 57.36L96.67 57.36L96.67 56.84C95.97 57.19 95.2 57.37 94.41 57.36L69.44 57.36L69.44 53.14C69.44 52.72 69.25 52.64 68.88 52.64L68.56 52.64L68.56 57.39L60.76 57.39L60.76 52.68C60.04 53 59.25 53.16 58.45 53.14L55.65 53.14L55.65 57.36L46.03 57.36L43.84 54.66L41.47 57.36L25.88 57.36L25.88 39.9Z" />
		</g>
		<g id="Layer">
		</g>
		<g id="Layer">
			<path id="Layer" class="shp1" d="M75.78 42.47L85.72 42.47L85.72 45.14L78.82 45.14L78.82 47.46L85.53 47.46L85.53 49.81L78.82 49.81L78.82 52.25L85.72 52.25L85.72 54.85L75.78 54.85L75.78 42.47Z" />
		</g>
		<g id="Layer">
		</g>
		<g id="Layer">
			<path id="Layer" class="shp1" d="M104.9 47.28C108.65 47.47 108.95 49.33 108.95 51.33C108.93 53.32 107.29 54.92 105.3 54.9L98.67 54.9L98.67 52.25L103.67 52.25C104.51 52.25 105.78 52.25 105.78 51.06C105.78 50.5 105.56 50.13 104.66 50.01C104.26 49.95 102.79 49.87 102.55 49.87C99.18 49.78 98.34 48.1 98.34 46.05C98.29 45.15 98.6 44.26 99.21 43.59C99.82 42.92 100.67 42.51 101.57 42.47L108.34 42.47L108.34 45.17L103.67 45.17C102.62 45.17 101.47 45.04 101.47 46.22C101.47 46.98 102.03 47.13 102.74 47.2L104.9 47.28Z" />
		</g>
		<g id="Layer">
		</g>
		<g id="Layer">
			<path id="Layer" class="shp1" d="M93.47 47.28C97.2 47.47 97.51 49.33 97.51 51.33C97.49 53.33 95.84 54.93 93.83 54.9L87.29 54.9L87.29 52.25L92.26 52.25C93.11 52.25 94.37 52.25 94.37 51.06C94.37 50.5 94.15 50.13 93.25 50.01C92.85 49.95 91.38 49.87 91.15 49.87C87.77 49.78 86.93 48.1 86.93 46.05C86.88 45.15 87.19 44.26 87.8 43.59C88.41 42.92 89.26 42.51 90.17 42.47L96.93 42.47L96.93 45.17L92.26 45.17C91.21 45.17 90.05 45.04 90.05 46.22C90.05 46.98 90.62 47.13 91.34 47.2L93.47 47.28Z" />
		</g>
		<g id="Layer">
		</g>
		<g id="Layer">
			<path id="Layer" fill-rule="evenodd" class="shp1" d="M57.43 42.5C57.64 42.48 57.85 42.49 58.06 42.51C59.94 42.71 61.3 44.39 61.11 46.28C61.11 50.66 58.24 50.66 56.66 50.66L52.57 50.66L52.57 54.88L46.74 54.88L43.18 50.76L39.54 54.85L27.94 54.85L27.94 42.47L39.88 42.47L43.26 46.34L46.74 42.5L57.43 42.5ZM41.32 48.53L38.36 45.17L30.98 45.17L30.98 47.46L37.68 47.46L37.68 49.81L30.98 49.81L30.98 52.25L37.99 52.25L41.32 48.53ZM49.58 43.69L45.22 48.52L49.58 53.69L49.58 43.69ZM56.44 48.14L56.81 48.14C57.63 48.04 58.21 47.3 58.11 46.48C58.01 45.66 57.27 45.07 56.45 45.17L52.64 45.17L52.64 48.13L56.44 48.13L56.44 48.14Z" />
		</g>
		<g id="Layer">
		</g>
		<g id="Layer">
			<path id="Layer" fill-rule="evenodd" class="shp1" d="M74.15 52.35L74.22 54.89L71.27 54.89L71.19 52.62C71.16 51.57 70.74 50.51 69.69 50.51L65.72 50.51L65.72 54.88L62.68 54.88L62.68 42.5L70.58 42.5C72.12 42.5 74.22 43.17 74.22 45.81C74.35 47.29 73.5 48.69 72.12 49.24C73.55 49.39 74.15 50.35 74.15 52.35ZM69.49 47.98C70.73 47.98 71.18 47.4 71.19 46.59C71.19 45.98 70.79 45.17 69.51 45.17L65.72 45.17L65.72 47.98L69.49 47.98Z" />
		</g>
		<g id="Layer">
		</g>
		<g id="Layer">
			<path id="Layer" fill-rule="evenodd" class="shp1" d="M63.88 21.11L66.92 21.11L66.92 33.5L63.88 33.5L63.88 21.11Z" />
		</g>
		<g id="Layer">
		</g>
		<g id="Layer">
			<path id="Layer" class="shp1" d="M39.01 21.12L48.93 21.12L48.93 23.79L42.05 23.79L42.05 26.11L48.74 26.11L48.74 28.46L42.05 28.46L42.05 30.89L48.93 30.89L48.93 33.5L39.01 33.5L39.01 21.12Z" />
		</g>
		<g id="Layer">
		</g>
		<g id="Layer">
			<path id="Layer" fill-rule="evenodd" class="shp1" d="M62.24 30.97L62.34 33.51L59.39 33.51L59.27 31.24C59.24 30.19 58.83 29.13 57.78 29.13L53.8 29.13L53.8 33.5L50.74 33.5L50.74 21.12L58.65 21.12C60.19 21.12 62.3 21.78 62.3 24.43C62.43 25.91 61.57 27.3 60.19 27.86C61.62 28.02 62.24 29.01 62.24 30.97ZM59.27 25.16C59.27 24.55 58.87 23.73 57.6 23.73L53.8 23.73L53.8 26.58L57.57 26.58C58.81 26.58 59.27 26.02 59.27 25.16Z" />
		</g>
		<g id="Layer">
		</g>
		<g id="Layer">
			<path id="Layer" fill-rule="evenodd" class="shp1" d="M36.85 21.12L36.85 33.5L33.8 33.5L33.8 24.46L29.65 33.5L26.88 33.5L22.83 24.3L22.83 33.5L16.7 33.5L15.5 30.73L9.44 30.73L8.24 33.5L5.08 33.5L10.5 21.12L14.52 21.12L19.79 33.04L19.79 21.12L24.6 21.12L28.24 29.42L31.98 21.12L36.85 21.12ZM14.27 28.07L12.39 23.73L10.57 28.07L14.27 28.07Z" />
		</g>
		<g id="Layer">
		</g>
		<g id="Layer">
			<path id="Layer" fill-rule="evenodd" class="shp1" d="M101.37 21.11L101.37 33.44L97.23 33.44L91.76 24.38L91.76 33.44L85.67 33.44L84.48 30.67L78.37 30.67L77.23 33.44L73.22 33.44C69.85 33.44 68.35 30.62 68.43 27.19C68.53 22.1 71.54 21.05 72.92 21.05L76.88 21.05L76.88 23.73L75 23.73C72.99 23.73 71.41 24 71.41 26.9L71.41 27.85C71.42 30.03 72.57 30.54 73.31 30.69L75.2 30.69L79.42 21.11L83.49 21.11L88.67 32.71L88.67 21.11L93.13 21.11L98.28 29.68L98.28 21.11L101.37 21.11ZM83.33 28.07L81.43 23.74L79.61 28.07L83.33 28.07Z" />
		</g>
		<g id="Layer">
		</g>
		<g id="Layer">
		</g>
		<g id="Layer">
		</g>
		<g id="Layer">
		</g>
		<g id="Layer">
		</g>
		<g id="Layer">
		</g>
		<g id="Layer">
		</g>
		<g id="Layer">
		</g>
		<g id="Layer">
		</g>
		<g id="Layer">
		</g>
		<g id="Layer">
		</g>
		<g id="Layer">
		</g>
		<g id="Layer">
		</g>
		<g id="Layer">
		</g>
		<g id="Layer">
		</g>
		<g id="Layer">
		</g>
	</g>
</svg>