<?xml version="1.0" encoding="utf-8"?>
<!-- Generator: Adobe Illustrator 19.0.0, SVG Export Plug-In . SVG Version: 6.00 Build 0)  -->
<svg version="1.1" id="Layer_1" xmlns="http://www.w3.org/2000/svg" xmlns:xlink="http://www.w3.org/1999/xlink" x="0px" y="0px"
	 viewBox="192 382 30 30" style="enable-background:new 192 382 30 30;" xml:space="preserve">
<g>
	<path d="M207,412c-8.3,0-15-6.7-15-15s6.7-15,15-15s15,6.7,15,15S215.3,412,207,412z M207,383.9c-7.2,0-13.1,5.9-13.1,13.1
		s5.9,13.1,13.1,13.1s13.1-5.9,13.1-13.1S214.2,383.9,207,383.9z"/>
	<path d="M213.6,397.9h-13.1c-0.5,0-0.9-0.4-0.9-0.9s0.4-0.9,0.9-0.9h13.1c0.5,0,0.9,0.4,0.9,0.9S214.1,397.9,213.6,397.9z"/>
</g>
</svg>
