<?xml version="1.0" encoding="utf-8"?>
<!-- Generator: Adobe Illustrator 19.0.0, SVG Export Plug-In . SVG Version: 6.00 Build 0)  -->
<svg version="1.1" id="Layer_1" xmlns="http://www.w3.org/2000/svg" xmlns:xlink="http://www.w3.org/1999/xlink" x="0px" y="0px"
	 viewBox="-298 389 15 15" style="enable-background:new -298 389 15 15;" xml:space="preserve">
<style type="text/css">
	.st0{fill:#E51A1A;}
</style>
<path id="Path_175" class="st0" d="M-296.5,403.8l6-6l6,6c0.3,0.3,0.9,0.4,1.2,0c0.3-0.3,0.4-0.9,0-1.2c0,0,0,0,0,0l-6-6l6-6
	c0.3-0.3,0.3-0.9,0-1.2s-0.9-0.3-1.2,0l-6,6l-6-6c-0.3-0.3-0.9-0.3-1.2,0s-0.3,0.9,0,1.2l6,6l-6,6c-0.3,0.3-0.3,0.9,0,1.2
	C-297.4,404.1-296.9,404.1-296.5,403.8z"/>
</svg>
