<svg xmlns="http://www.w3.org/2000/svg" viewBox="0 0 115 77" width="115" height="77">
	<style>
		tspan { white-space:pre }
		.shp0 { fill: #3c4043 } 
		.shp1 { fill: #4285f4 } 
		.shp2 { fill: #34a853 } 
		.shp3 { fill: #fbbc04 } 
		.shp4 { fill: #ea4335 } 
	</style>
	<g id="Layer">
		<g id="Layer">
		</g>
		<g id="Layer">
		</g>
		<g id="Layer">
		</g>
		<g id="Layer">
		</g>
		<g id="Layer">
		</g>
		<g id="Layer">
		</g>
		<g id="Layer">
		</g>
		<g id="Layer">
		</g>
		<g id="Layer">
		</g>
		<g id="Layer">
		</g>
		<g id="Layer">
		</g>
		<g id="Layer">
		</g>
		<g id="Layer">
			<path id="Layer" fill-rule="evenodd" class="shp0" d="M54.63 41.33L54.63 53L50.98 53L50.98 24.19L60.65 24.19C62.98 24.14 65.25 25.04 66.9 26.7C70.21 29.82 70.41 35.08 67.31 38.46C67.17 38.6 67.04 38.73 66.9 38.87C65.2 40.5 63.12 41.33 60.65 41.33L54.63 41.33ZM54.63 27.73L54.63 37.79L60.74 37.79C62.1 37.84 63.41 37.29 64.34 36.3C66.25 34.3 66.2 31.08 64.23 29.15C63.3 28.23 62.06 27.73 60.74 27.73L54.63 27.73Z" />
		</g>
		<g id="Layer">
		</g>
		<g id="Layer">
			<path id="Layer" fill-rule="evenodd" class="shp0" d="M77.93 32.65C80.63 32.65 82.76 33.38 84.32 34.83C85.88 36.28 86.65 38.3 86.65 40.85L86.65 53L83.17 53L83.17 50.27L83.01 50.27C81.49 52.52 79.5 53.65 76.98 53.65C74.85 53.65 73.04 53 71.61 51.72C70.21 50.52 69.42 48.75 69.46 46.89C69.46 44.85 70.23 43.24 71.75 42.02C73.27 40.8 75.31 40.21 77.84 40.21C80.02 40.21 81.78 40.62 83.19 41.4L83.19 40.55C83.19 39.29 82.64 38.09 81.69 37.26C80.72 36.39 79.47 35.91 78.18 35.91C76.14 35.91 74.54 36.78 73.36 38.53L70.14 36.48C71.86 33.93 74.47 32.65 77.93 32.65ZM73.22 46.96C73.22 47.93 73.68 48.82 74.42 49.37C75.24 50.02 76.23 50.36 77.25 50.34C78.79 50.34 80.27 49.72 81.35 48.61C82.55 47.47 83.17 46.11 83.17 44.55C82.03 43.63 80.45 43.17 78.41 43.19C76.94 43.19 75.69 43.56 74.69 44.27C73.72 44.98 73.22 45.88 73.22 46.96Z" />
		</g>
		<g id="Layer">
		</g>
		<g id="Layer">
			<path id="Layer" fill-rule="evenodd" class="shp0" d="M106.68 33.29L94.49 61.67L90.73 61.67L95.26 51.74L87.27 33.29L91.23 33.29L97.01 47.44L97.07 47.44L102.71 33.29L106.68 33.29Z" />
		</g>
		<g id="Layer">
		</g>
		<g id="Layer">
		</g>
		<g id="Layer">
			<path id="Layer" fill-rule="evenodd" class="shp1" d="M39.88 38.8C39.88 37.68 39.79 36.55 39.61 35.45L24.23 35.45L24.23 41.81L33.04 41.81C32.68 43.86 31.5 45.7 29.78 46.85L29.78 50.98L35.03 50.98C38.11 48.11 39.88 43.86 39.88 38.8Z" />
		</g>
		<g id="Layer">
		</g>
		<g id="Layer">
			<path id="Layer" fill-rule="evenodd" class="shp2" d="M24.23 54.98C28.62 54.98 32.34 53.51 35.03 50.98L29.78 46.85C28.31 47.86 26.43 48.43 24.23 48.43C19.97 48.43 16.37 45.51 15.08 41.61L9.66 41.61L9.66 45.88C12.43 51.46 18.07 54.98 24.23 54.98Z" />
		</g>
		<g id="Layer">
		</g>
		<g id="Layer">
			<path id="Layer" fill-rule="evenodd" class="shp3" d="M15.08 41.61C14.4 39.56 14.4 37.33 15.08 35.27L15.08 31.01L9.66 31.01C7.33 35.68 7.33 41.19 9.66 45.86L15.08 41.61Z" />
		</g>
		<g id="Layer">
		</g>
		<g id="Layer">
			<path id="Layer" fill-rule="evenodd" class="shp4" d="M24.23 28.44C26.56 28.4 28.8 29.29 30.48 30.92L35.15 26.19C32.18 23.39 28.28 21.85 24.23 21.89C18.07 21.89 12.43 25.43 9.66 31.01L15.08 35.29C16.37 31.36 19.97 28.44 24.23 28.44Z" />
		</g>
		<g id="Layer">
		</g>
		<g id="Layer">
		</g>
		<g id="Layer">
		</g>
		<g id="Layer">
		</g>
		<g id="Layer">
		</g>
		<g id="Layer">
		</g>
		<g id="Layer">
		</g>
		<g id="Layer">
		</g>
		<g id="Layer">
		</g>
		<g id="Layer">
		</g>
		<g id="Layer">
		</g>
		<g id="Layer">
		</g>
		<g id="Layer">
		</g>
		<g id="Layer">
		</g>
		<g id="Layer">
		</g>
		<g id="Layer">
		</g>
		<g id="Layer">
		</g>
		<g id="Layer">
		</g>
		<g id="Layer">
		</g>
		<g id="Layer">
		</g>
		<g id="Layer">
		</g>
		<g id="Layer">
		</g>
		<g id="Layer">
		</g>
		<g id="Layer">
		</g>
		<g id="Layer">
		</g>
	</g>
</svg>