<svg xmlns="http://www.w3.org/2000/svg" viewBox="0 0 115 77" width="115" height="77">
	<style>
		tspan { white-space:pre }
		.shp0 { fill: #231f20 } 
		.shp1 { fill: #ff5f00 } 
		.shp2 { fill: #eb001b } 
		.shp3 { fill: #f79e1b } 
	</style>
	<g id="Layer">
		<g id="Layer">
		</g>
		<g id="Layer">
		</g>
		<g id="Layer">
		</g>
		<g id="Layer">
		</g>
		<g id="Layer">
		</g>
		<g id="Layer">
			<path id="Layer" fill-rule="evenodd" class="shp0" d="M27.35 72.42L27.35 68.47C27.35 67.26 26.9 66.66 25.84 66.66C25.69 66.66 25.69 66.66 25.53 66.66C24.47 66.66 23.87 67.56 24.02 68.47L24.02 72.42L22.5 72.42L22.5 68.47C22.5 67.26 22.05 66.66 20.99 66.66C20.83 66.66 20.83 66.66 20.68 66.66C19.77 66.66 19.17 67.56 19.32 68.47L19.32 72.42L17.8 72.42L17.8 65.29L19.32 65.29L19.32 66.2C19.77 65.44 20.53 65.14 21.44 65.14C22.5 64.99 23.41 65.59 23.87 66.35C24.47 65.59 25.38 65.14 26.44 65.14C26.6 65.14 26.6 65.14 26.75 65.14C28.11 65.29 29.33 66.5 29.17 68.02L29.17 72.57L27.35 72.42ZM52.68 66.66L50.1 66.66L50.1 69.99C50.1 70.75 50.4 71.2 51.16 71.2C51.62 71.2 52.07 71.05 52.53 70.75L52.98 72.11C52.37 72.57 51.77 72.72 51.01 72.72C49.19 72.72 48.58 71.81 48.58 70.14L48.58 66.81L47.07 66.81L47.07 65.44L48.43 65.44L48.43 63.32L49.95 63.32L49.95 65.44L52.53 65.44L52.68 66.66ZM66.78 65.44L66.32 66.96C66.02 66.81 65.72 66.81 65.41 66.81C64.35 66.81 63.9 67.41 63.9 68.63L63.9 72.57L62.38 72.57L62.38 65.44L63.9 65.44L63.9 66.35C64.2 65.75 64.96 65.29 65.72 65.29C66.02 65.29 66.48 65.29 66.78 65.44ZM44.94 67.26C44.19 66.81 43.43 66.66 42.67 66.66C41.76 66.66 41.3 67.11 41.3 67.56C41.3 68.17 41.91 68.17 42.52 68.32L43.28 68.47C44.79 68.63 45.7 69.23 45.7 70.6C45.7 71.96 44.49 72.87 42.37 72.87C41.3 72.87 40.24 72.57 39.33 71.96L40.09 70.75C40.85 71.2 41.61 71.51 42.52 71.51C43.58 71.51 44.19 71.2 44.19 70.6C44.19 70.14 43.88 69.99 42.97 69.84L42.21 69.69C40.7 69.38 39.79 68.78 39.79 67.56C39.79 66.2 41 65.29 42.82 65.29C43.88 65.29 44.79 65.59 45.7 66.05L44.94 67.26ZM88.46 65.44L88.01 66.96C87.71 66.81 87.4 66.81 87.1 66.81C86.04 66.81 85.58 67.41 85.58 68.63L85.58 72.57L84.07 72.57L84.07 65.44L85.58 65.44L85.58 66.35C85.89 65.75 86.64 65.29 87.4 65.29C87.71 65.29 88.16 65.29 88.46 65.44ZM67.39 68.47C67.54 66.5 69.21 64.99 71.18 65.14C72.09 65.14 73 65.44 73.75 66.05L73 67.26C72.54 66.96 71.78 66.66 71.18 66.66C69.96 66.81 69.21 67.72 69.05 68.78C68.9 69.99 69.96 71.05 71.18 71.2C71.78 71.2 72.39 71.05 73 70.6L73.6 71.81C72.85 72.42 71.94 72.72 71.03 72.72C70.87 72.72 70.87 72.72 70.72 72.72C68.75 72.57 67.23 70.9 67.23 68.93C67.23 68.93 67.23 68.78 67.39 68.47ZM81.94 72.72L80.43 72.72L80.43 71.81C79.82 72.57 79.06 72.87 78.15 72.87C76.03 72.87 74.36 71.2 74.36 69.08C74.36 66.96 76.03 65.29 78.15 65.29C79.06 65.29 79.82 65.59 80.43 66.35L80.43 65.44L81.94 65.44L81.94 72.72ZM76.03 69.08C76.03 70.29 76.94 71.2 78.15 71.2C79.21 71.2 80.28 70.45 80.28 69.23C80.43 68.02 79.52 66.96 78.3 66.96C77.09 66.81 76.03 67.72 76.03 68.93C76.03 69.08 76.03 69.08 76.03 69.08ZM60.71 68.93C60.71 69.08 60.71 69.38 60.71 69.54L55.41 69.54C55.56 70.6 56.47 71.51 57.53 71.36C58.29 71.36 59.05 71.05 59.65 70.6L60.56 71.81C59.65 72.42 58.59 72.72 57.53 72.72C55.41 72.87 53.74 71.2 53.74 69.08C53.59 66.96 55.26 65.29 57.38 65.29C59.35 65.29 60.71 66.81 60.71 68.93ZM55.41 68.32L59.2 68.32C59.2 67.41 58.29 66.66 57.38 66.66C56.32 66.66 55.41 67.41 55.41 68.32ZM96.35 72.72L94.83 72.72L94.83 71.81C94.23 72.57 93.47 72.87 92.56 72.87C90.43 72.87 88.77 71.2 88.77 69.08C88.77 66.96 90.43 65.29 92.56 65.29C93.47 65.29 94.23 65.59 94.83 66.35L94.83 62.56L96.35 62.56L96.35 72.72ZM98.93 71.51C99.08 71.51 99.08 71.51 99.23 71.51C99.38 71.51 99.38 71.66 99.53 71.66L99.68 71.81C99.84 71.96 99.84 72.11 99.68 72.42C99.68 72.57 99.53 72.57 99.53 72.57C99.53 72.57 99.38 72.72 99.23 72.72C99.23 72.87 99.08 72.87 99.08 72.87C98.93 72.87 98.77 72.87 98.77 72.87L98.62 72.72C98.6 72.7 98.58 72.67 98.57 72.64C98.42 72.57 98.32 72.44 98.32 72.27C98.32 72.11 98.32 71.96 98.32 71.66C98.32 71.51 98.47 71.51 98.47 71.51C98.47 71.51 98.62 71.36 98.77 71.36C98.77 71.51 98.77 71.51 98.93 71.51ZM98.62 71.96L98.62 72.57L98.77 72.57L98.77 72.27L98.93 72.57L99.08 72.57L98.93 72.27L99.08 72.27L99.08 71.96L98.62 71.96ZM98.93 72.27C98.84 72.27 98.77 72.27 98.77 72.27L98.77 72.11L98.93 72.27ZM90.59 69.23C90.59 70.45 91.5 71.36 92.71 71.36C93.77 71.36 94.83 70.6 94.83 69.38C94.98 68.17 94.07 67.11 92.86 67.11C91.65 66.96 90.59 67.87 90.59 69.08C90.59 69.08 90.59 69.08 90.59 69.23ZM37.97 72.72L36.45 72.72L36.45 71.81C35.85 72.57 35.09 72.87 34.18 72.87C32.05 72.87 30.39 71.2 30.39 69.08C30.39 66.96 32.05 65.29 34.18 65.29C35.09 65.29 35.85 65.59 36.45 66.35L36.45 65.44L37.97 65.44L37.97 72.72ZM32.21 69.23C32.21 70.45 33.12 71.36 34.33 71.36C35.39 71.36 36.45 70.6 36.45 69.38C36.6 68.17 35.69 67.11 34.48 67.11C33.27 66.96 32.21 67.87 32.21 69.08C32.21 69.08 32.21 69.08 32.21 69.23Z" />
		</g>
		<g id="Layer">
		</g>
		<g id="Layer">
			<path id="Layer" fill-rule="evenodd" class="shp1" d="M45.1 11L68.6 11L68.6 53.31L45.1 53.31L45.1 11Z" />
		</g>
		<g id="Layer">
		</g>
		<g id="Layer">
			<path id="Layer" class="shp2" d="M46.61 32.08C46.61 23.74 50.4 16.01 56.92 10.85C45.25 1.6 28.26 3.73 19.17 15.4C10.07 27.08 12.04 44.06 23.71 53.16C33.42 60.89 47.22 60.89 57.07 53.16C50.4 48.16 46.61 40.42 46.61 32.08Z" />
		</g>
		<g id="Layer">
		</g>
		<g id="Layer">
			<path id="Layer" class="shp3" d="M100.59 32.08C100.59 46.94 88.46 59.07 73.6 59.07C67.54 59.07 61.78 57.1 56.92 53.31C68.6 44.06 70.72 27.23 61.47 15.55C60.11 13.89 58.59 12.37 56.92 11C68.6 1.75 85.58 3.88 94.68 15.55C98.47 20.25 100.59 26.02 100.59 32.08Z" />
		</g>
		<g id="Layer">
		</g>
		<g id="Layer">
			<path id="Layer" class="shp3" d="M98.02 48.76L98.02 47.85L98.32 47.85L98.32 47.7L97.41 47.7L97.41 47.85L97.87 47.85L97.87 48.76L98.02 48.76ZM99.68 48.76L99.68 47.7L99.38 47.7L99.08 48.46L98.77 47.7L98.47 47.7L98.47 48.76L98.62 48.76L98.62 48L98.93 48.61L99.08 48.61L99.38 48L99.38 48.76L99.68 48.76Z" />
		</g>
		<g id="Layer">
		</g>
		<g id="Layer">
		</g>
		<g id="Layer">
		</g>
		<g id="Layer">
		</g>
		<g id="Layer">
		</g>
		<g id="Layer">
		</g>
		<g id="Layer">
		</g>
		<g id="Layer">
		</g>
		<g id="Layer">
		</g>
		<g id="Layer">
		</g>
		<g id="Layer">
		</g>
		<g id="Layer">
		</g>
		<g id="Layer">
		</g>
		<g id="Layer">
		</g>
		<g id="Layer">
		</g>
		<g id="Layer">
		</g>
	</g>
</svg>