<svg xmlns="http://www.w3.org/2000/svg" width="27.078" height="29.979" viewBox="0 0 27.078 29.979">
  <g id="Group_80" data-name="Group 80" transform="translate(-484.721 5928.279)">
    <g id="Group_79" data-name="Group 79">
      <g id="Group_78" data-name="Group 78">
        <path id="Path_47" data-name="Path 47" d="M491.8-5909.7h16.5a3.372,3.372,0,0,0,3.4-3.4v-7h-.1l-21-2.9v-3h0v-.1h0v-.1h0l-.1-.1h-.1l-4.5-1.9a.841.841,0,0,0-1.1.4.841.841,0,0,0,.4,1.1l4,1.7v18.2a3.447,3.447,0,0,0,3,3.4,3.372,3.372,0,0,0-.5,1.7,3.372,3.372,0,0,0,3.4,3.4,3.436,3.436,0,0,0,3.4-3.4,3.372,3.372,0,0,0-.5-1.7h7.5a3.372,3.372,0,0,0-.5,1.7,3.372,3.372,0,0,0,3.4,3.4,3.436,3.436,0,0,0,3.4-3.4,3.372,3.372,0,0,0-3.4-3.4H492.7a1.685,1.685,0,0,1-1.7-1.7v-2.3c-.5-.7.1-.6.8-.6Zm4.1,6.9a1.753,1.753,0,0,1-1.7,1.7,1.752,1.752,0,0,1-1.7-1.7,1.753,1.753,0,0,1,1.7-1.7,1.752,1.752,0,0,1,1.7,1.7Zm13.3,0a1.753,1.753,0,0,1-1.7,1.7,1.752,1.752,0,0,1-1.7-1.7,1.753,1.753,0,0,1,1.7-1.7,1.752,1.752,0,0,1,1.7,1.7Zm-.9-8.5H491.8a1.685,1.685,0,0,1-1.7-1.7v-9l20,2.8v6.2a1.845,1.845,0,0,1-1.8,1.7Zm0,0" fill="#3396d8"/>
      </g>
    </g>
  </g>
</svg>
