<svg xmlns="http://www.w3.org/2000/svg" width="36.2" height="31.8" viewBox="0 0 36.2 31.8">
  <g id="Group_169" data-name="Group 169" transform="translate(-484 4196.8)">
    <path id="Path_99" data-name="Path 99" d="M502.1-4187.8v7.9a1.135,1.135,0,0,0,.3.8l5.7,5.7,1.6-1.6-5.3-5.3v-7.5Z"/>
    <path id="Path_100" data-name="Path 100" d="M504.4-4196.8a15.85,15.85,0,0,0-15.7,13.6H484l5.7,5.7,5.7-5.7H491a13.639,13.639,0,0,1,13.4-11.3,13.614,13.614,0,0,1,13.6,13.6,13.614,13.614,0,0,1-13.6,13.6,13.551,13.551,0,0,1-10.7-5.2l-1.8,1.4a15.679,15.679,0,0,0,12.5,6.1,15.834,15.834,0,0,0,15.8-15.8,16.007,16.007,0,0,0-15.8-16Z"/>
  </g>
</svg>
