<svg xmlns="http://www.w3.org/2000/svg" width="33.2" height="33.2" viewBox="0 0 33.2 33.2">
  <g id="Group_112" data-name="Group 112" transform="translate(-483.2 5397.6)">
    <g id="Group_111" data-name="Group 111">
      <path id="Path_61" data-name="Path 61" d="M511.5-5392.7a16.585,16.585,0,0,0-11.7-4.9,16.177,16.177,0,0,0-11.7,4.9,16.585,16.585,0,0,0-4.9,11.7,16.177,16.177,0,0,0,4.9,11.7,16.585,16.585,0,0,0,11.7,4.9,16.177,16.177,0,0,0,11.7-4.9,16.585,16.585,0,0,0,4.9-11.7A17.019,17.019,0,0,0,511.5-5392.7Zm-11.7,26.3a14.617,14.617,0,0,1-14.6-14.6,14.682,14.682,0,0,1,14.6-14.6,14.682,14.682,0,0,1,14.6,14.6A14.682,14.682,0,0,1,499.8-5366.4Z" fill="#3396d8"/>
      <path id="Path_62" data-name="Path 62" d="M500.8-5382h-2.1a2.112,2.112,0,0,1-2.1-2.1,2.112,2.112,0,0,1,2.1-2.1h4.2a1,1,0,0,0,1-1,1,1,0,0,0-1-1h-2.1v-2.1a1,1,0,0,0-1-1,.945.945,0,0,0-1,1v2.1h-.1a4.055,4.055,0,0,0-4.1,4.1,4.055,4.055,0,0,0,4.1,4.1h2.1a2.112,2.112,0,0,1,2.1,2.1,2.182,2.182,0,0,1-2.1,2.1h-4.2a1,1,0,0,0-1,1,1,1,0,0,0,1,1h2.1v2.1a1,1,0,0,0,1,1,.945.945,0,0,0,1-1v-2.1h.1a4.055,4.055,0,0,0,4.1-4.1A4.055,4.055,0,0,0,500.8-5382Z" fill="#3396d8"/>
    </g>
  </g>
</svg>
